<svg width="40" height="40" viewBox="0 0 40 40" fill="none" xmlns="http://www.w3.org/2000/svg">
<path fill-rule="evenodd" clip-rule="evenodd" d="M4.38247 11.4381C4.84089 10.9797 5.46264 10.7222 6.11095 10.7222H32.9998C33.6481 10.7222 34.2699 10.9797 34.7283 11.4381C35.1867 11.8966 35.4443 12.5183 35.4443 13.1666V29.7621C35.4443 32.7826 32.8932 35.1666 29.9443 35.1666H9.1665C6.18149 35.1666 3.6665 32.6516 3.6665 29.6666V13.1666C3.6665 12.5183 3.92404 11.8966 4.38247 11.4381ZM32.9998 13.1666L6.11095 13.1666L6.11095 29.6666C6.11095 31.3016 7.53152 32.7222 9.1665 32.7222H29.9443C31.6153 32.7222 32.9998 31.3616 32.9998 29.7621V13.1666Z" fill="white"/>
<path fill-rule="evenodd" clip-rule="evenodd" d="M19.5556 6.38878C17.9348 6.38878 16.3804 7.03263 15.2343 8.17868C14.0883 9.32474 13.4444 10.8791 13.4444 12.4999V14.9443C13.4444 15.6194 12.8972 16.1666 12.2222 16.1666C11.5472 16.1666 11 15.6194 11 14.9443V12.4999C11 10.2308 11.9014 8.05468 13.5059 6.4502C15.1103 4.84572 17.2865 3.94434 19.5556 3.94434C21.8246 3.94434 24.0008 4.84572 25.6052 6.4502C27.2097 8.05468 28.1111 10.2308 28.1111 12.4999V14.9443C28.1111 15.6194 27.5639 16.1666 26.8889 16.1666C26.2139 16.1666 25.6667 15.6194 25.6667 14.9443V12.4999C25.6667 10.8791 25.0228 9.32474 23.8768 8.17868C22.7307 7.03263 21.1763 6.38878 19.5556 6.38878Z" fill="white"/>
</svg>
